<?xml version="1.0" encoding="utf-8"?>
<!-- Generator: Adobe Illustrator 15.0.0, SVG Export Plug-In . SVG Version: 6.00 Build 0)  -->
<!DOCTYPE svg PUBLIC "-//W3C//DTD SVG 1.1//EN" "http://www.w3.org/Graphics/SVG/1.1/DTD/svg11.dtd">
<svg version="1.1" xmlns="http://www.w3.org/2000/svg" xmlns:xlink="http://www.w3.org/1999/xlink" x="0px" y="0px" width="500px"
	 height="162px" viewBox="0 0 500 162" enable-background="new 0 0 500 162" xml:space="preserve">
<g id="Layer_1">
	<polygon points="-172.357,-74.313 -143.929,-4.563 -141.936,-4.563 -141.936,-74.313 	"/>
	<g>
		<polygon fill="none" stroke="#000000" stroke-width="2" points="-378.922,292.776 -393.521,331.643 -314.063,331.643 
			-329.077,292.776 		"/>
		<polygon fill="none" stroke="#000000" stroke-width="2" points="-356.772,230.452 -375.168,280.312 -332.623,280.312 
			-351.985,230.452 		"/>
		<path fill="none" stroke="#000000" stroke-width="2" d="M-412.291,331.643l41.051-101.19h-44.292c-10.217,0-28.297,0.077-42.964,0
			c-21.014-0.113-38.29,11.563-42.829,44.886c-3.424,25.138,11.585,56.431,44.537,56.431c11.888,0,26.695,0,26.695,0v-38.73
			l-28.497,0.277v-12.832h46.299V331.643z"/>
	</g>
	<g>
		<polygon points="278.516,108.554 264.166,146.76 342.272,146.76 327.514,108.554 		"/>
		<polygon points="300.29,47.29 282.206,96.3 324.027,96.3 304.994,47.29 		"/>
		<path d="M245.715,146.76l40.353-99.47h-43.538c-10.044,0-27.816,0.074-42.233,0c-20.656-0.111-37.638,11.365-42.1,44.121
			c-3.366,24.711,11.388,55.472,43.778,55.472c11.687,0,26.241,0,26.241,0V108.81l-28.013,0.273V96.47h45.512V146.76z"/>
	</g>
	<text transform="matrix(1 0 0 1 -501.8027 219.3232)" font-family="'HelveticaNeueLTStd-Lt'" font-size="34.9414">WATERLOO</text>
	<text transform="matrix(1 0 0 1 157.7271 35.1172)" font-family="'Corbel'" font-size="35.2777">WATERLOO</text>
	<g>
		<path d="M767.945,48.646c0-3.035-1.813-4.953-5.372-4.953h-8.859v9.801h8.859C765.469,53.493,767.945,51.679,767.945,48.646z"/>
		<path d="M829.614,65.073c6.558,0,9.348-5.51,9.348-10.953c0-5.441-2.79-10.951-9.348-10.951c-6.593,0-9.384,5.51-9.384,10.951
			C820.23,59.563,823.021,65.073,829.614,65.073z"/>
		<polygon points="700.173,44.04 695.185,56.808 704.986,56.808 		"/>
		<path d="M803.768,65.073c6.558,0,9.348-5.51,9.348-10.953c0-5.441-2.79-10.951-9.348-10.951c-6.593,0-9.384,5.51-9.384,10.951
			C794.384,59.563,797.175,65.073,803.768,65.073z"/>
		<path d="M569.667-111.123V308.21H931v-419.333H569.667z M829.614,41.146c7.813,0,11.72,6.174,11.72,12.975
			c0,6.803-3.906,12.977-11.72,12.977c-7.849,0-11.756-6.174-11.756-12.977C817.858,47.319,821.766,41.146,829.614,41.146z
			 M824.441,128.425H782.62l18.084-49.012h4.704L824.441,128.425z M803.768,41.146c7.813,0,11.72,6.174,11.72,12.975
			c0,6.803-3.906,12.977-11.72,12.977c-7.849,0-11.756-6.174-11.756-12.977C792.012,47.319,795.919,41.146,803.768,41.146z
			 M774.607,41.669h2.372V64.55h13.952v2.023h-16.324V41.669z M751.342,41.669h11.406c4.116,0,7.569,1.988,7.569,6.488
			c0,3.139-1.64,5.719-4.849,6.348v0.07c3.244,0.418,4.186,2.65,4.36,5.615c0.104,1.709,0.104,5.127,1.15,6.383h-2.615
			c-0.594-0.977-0.594-2.824-0.663-3.871c-0.209-3.488-0.488-7.359-4.988-7.186h-8.999v11.057h-2.372V41.669z M730.658,41.669
			h17.196v2.023H733.03v8.998h13.883v2.023H733.03v9.836h14.999v2.023h-17.371V41.669z M708.578,41.669h19.743v2.023h-8.686v22.881
			h-2.372V43.692h-8.686V41.669z M701.604,41.669l9.767,24.904h-2.547l-3.034-7.744h-11.337l-3,7.744h-2.546l10.046-24.904H701.604z
			 M660.687,41.669l5.651,21.801h0.069l6.069-21.801h2.966l6.104,21.801h0.07l5.686-21.801h2.372l-6.872,24.904h-2.512
			l-6.313-22.289h-0.069l-6.279,22.289h-2.581l-6.906-24.904H660.687z M700.617,128.595v12.613l28.013-0.273v38.072
			c0,0-14.555,0-26.241,0c-32.391,0-47.145-30.762-43.778-55.471c4.462-32.758,21.443-44.232,42.1-44.123
			c14.417,0.076,32.189,0,42.233,0h43.538l-40.353,99.469v-50.287H700.617z M764.58,178.882l14.35-38.203h48.998l14.759,38.203
			H764.58z"/>
	</g>
	<text transform="matrix(1 0 0 1 1048.0508 -67.9014)"><tspan x="0" y="0" font-family="'Corbel'" font-size="12">create a directory of people who know design</tspan><tspan x="0" y="14.4" font-family="'Corbel'" font-size="12">so that school knows who to approach when design is needed (ABCD, shows, etc)</tspan></text>
	<g>
		<polygon fill="none" stroke="#000000" stroke-width="2" points="-628.85,310.006 -643.448,348.873 -563.99,348.873 
			-579.004,310.006 		"/>
		<polygon fill="none" stroke="#000000" stroke-width="2" points="-606.699,247.682 -625.096,297.541 -582.551,297.541 
			-601.913,247.682 		"/>
		<path fill="none" stroke="#000000" stroke-width="2" d="M-662.219,348.873l41.051-101.191h-44.292
			c-10.217,0-28.297,0.078-42.964,0c-21.014-0.113-38.29,11.563-42.829,44.887c-3.424,25.137,11.585,56.43,44.537,56.43
			c11.888,0,26.695,0,26.695,0v-38.73l-28.497,0.277v-12.832h46.299V348.873z"/>
	</g>
	<text transform="matrix(1 0 0 1 -751.7305 236.5527)" font-family="'HelveticaNeueLTStd-Lt'" font-size="34.9414">WATERLOO</text>
</g>
<g id="Layer_2" display="none">
	<g display="inline">
		<g>
			<path d="M95.18,16.676c0.101,0.418,0.125,0.815,0.131,1.244c0.648-0.108,1.297-0.216,1.946-0.324
				c-0.336-1.026-0.625-1.58-1.792-1.686c-0.971-0.088-2.019,0.032-2.879,0.513c-1.173,0.655-0.133,1.61,0.871,1.196
				c0.482-0.198,0.985-0.212,1.458-0.458c0.853-0.444,0.568-1.346-0.357-1.334c-0.964,0.013-1.89,0.527-2.661,1.068
				c-0.877,0.616-0.792,1.747-0.71,2.675c0.082,0.921,0.433,2.232,1.368,2.649c0.991,0.441,2.032,0.527,3.027,0.088
				c-0.472-0.177-0.944-0.355-1.416-0.533c-0.007,0.083-0.014,0.167-0.021,0.25c0.648-0.108,1.297-0.216,1.946-0.324
				c-0.202-0.503-0.079-1.028-0.069-1.557c0.019-0.923-1.391-0.775-1.794-0.241c-0.304,0.402-0.327,0.698-0.277,1.19
				c0.506-0.311,1.012-0.621,1.518-0.931c-0.343-0.109-1.583-0.501-1.395-1.036c-0.636-0.02-1.272-0.04-1.908-0.06
				c-0.038,0.411-0.07,0.803,0.077,1.193c0.285,0.757,1.346,0.503,1.78,0.047c0.288-0.303,0.396-0.607,0.463-1.015
				c0.011-0.153,0.007-0.307-0.011-0.459c-0.043-0.547,0.075-0.366-0.428-0.417c-0.162-0.345-0.324-0.689-0.486-1.034
				c-0.16,0.17-1.089,0.7-0.631,1.282c0.382,0.484,1.011,0.424,1.547,0.258c-0.356-0.086-0.712-0.172-1.068-0.258
				c0.014,0.021,0.028,0.042,0.042,0.063c0.227,0.337,0.721,0.335,1.068,0.258c0.186-0.054,0.376-0.074,0.569-0.061
				c-0.301-0.223-0.602-0.447-0.902-0.67c-0.007,0.028-0.014,0.056-0.021,0.083c-0.089,0.362,0.354,0.64,0.653,0.663
				c0.544,0.042,1.08,0.022,1.625,0.008c1.121-0.028,1.468-1.505,0.156-1.472c-0.376,0.009-0.75,0.037-1.125,0.008
				c0.218,0.221,0.436,0.441,0.653,0.663c0.007-0.028,0.014-0.056,0.021-0.083c0.123-0.501-0.56-0.675-0.902-0.67
				c-0.375,0.005-0.731,0.067-1.097,0.148c0.356,0.086,0.712,0.172,1.068,0.258c-0.014-0.021-0.028-0.042-0.042-0.063
				c-0.215-0.32-0.733-0.362-1.068-0.258c-0.211,0.052-0.182,0.064,0.09,0.036c0.185,0.098,0.37,0.196,0.555,0.294
				c-0.019-0.024-0.038-0.047-0.057-0.071c0.015,0.187,0.03,0.373,0.046,0.559c-0.098,0.26,0.363-0.271,0.449-0.362
				c0.405-0.431,0.021-0.982-0.486-1.034c-0.659-0.067-1.44,0.183-1.892,0.693c-0.227,0.255-0.32,0.431-0.369,0.767
				c-0.059,0.406,0.295,0.914-0.047,1.274c0.593,0.016,1.187,0.032,1.78,0.047c-0.109-0.291-0.075-0.507-0.048-0.807
				c0.091-0.982-1.654-0.777-1.908-0.06c-0.506,1.431,0.972,2.257,2.146,2.631c0.64,0.204,1.597-0.147,1.518-0.931
				c-0.009-0.02-0.018-0.04-0.027-0.06c-0.598-0.08-1.196-0.16-1.794-0.241c-0.013,0.658-0.153,1.315,0.098,1.943
				c0.323,0.807,1.875,0.531,1.946-0.324c0.007-0.083,0.014-0.167,0.021-0.25c0.063-0.755-0.958-0.735-1.416-0.533
				c-1.355,0.597-2.792-3.779-0.31-3.812c-0.119-0.445-0.238-0.89-0.357-1.334c-0.441,0.229-0.991,0.266-1.458,0.458
				c0.291,0.399,0.581,0.797,0.871,1.196c0.351-0.196,0.705-0.242,1.102-0.265c0.553-0.032,0.63,0.34,0.767,0.759
				c0.267,0.815,1.958,0.52,1.946-0.324c-0.008-0.589-0.019-1.05-0.16-1.631C96.886,15.226,94.953,15.738,95.18,16.676L95.18,16.676
				z"/>
		</g>
	</g>
	<g display="inline">
		<g>
			<path d="M101.309,19.744c0.464-0.665,0.727-1.341,0.799-2.149c0.066-0.734-1.761-0.27-1.924,0.271
				c-0.13,0.431,0.061,0.814,0.225,1.207c0.159,0.38,0.219,0.767,0.502,1.084c0.409,0.46,2.249-0.226,1.802-0.728
				c-0.213-0.24-0.26-0.581-0.373-0.875c-0.115-0.303-0.333-0.628-0.233-0.959c-0.641,0.09-1.283,0.18-1.924,0.271
				c-0.063,0.708-0.251,1.307-0.66,1.892c-0.257,0.368,0.217,0.498,0.504,0.496C100.439,20.25,101.056,20.106,101.309,19.744
				L101.309,19.744z"/>
		</g>
	</g>
	<g display="inline">
		<g>
			<path d="M100.234,23.224c0.32-0.351,0.518-0.703,0.686-1.147c0.066-0.174,0.121-0.353,0.172-0.531
				c0.033-0.12,0.072-0.238,0.115-0.354c-0.554,0.112-0.643,0.205-0.267,0.278c0.175,0.058,0.354,0.099,0.54,0.102
				c0.196,0.003,0.161,0.001-0.105-0.004c0.058,0.108,0.104,0.221,0.137,0.34c0.157,0.462,0.274,0.947,0.419,1.415
				c0.447-0.27,0.894-0.541,1.34-0.811c-0.163,0-1.248,0.069-1.31-0.048c-0.12-0.224-0.089-0.875-0.036-1.104
				c0.167-0.729-1.78-0.423-1.933,0.24c-0.073,0.319-0.141,1.351,0.154,1.592c0.615,0.501,1.626,0.421,2.375,0.423
				c0.334,0,1.517-0.24,1.34-0.811c-0.183-0.593-0.293-1.332-0.615-1.864c-0.292-0.485-1.049-0.562-1.573-0.634
				c-0.667-0.092-1.773,0.073-2.178,0.693c-0.374,0.572-0.347,1.391-0.813,1.902C97.915,23.744,99.799,23.702,100.234,23.224
				L100.234,23.224z"/>
		</g>
	</g>
</g>
<g id="Layer_3">
	<path fill="#231F20" d="M-425.787-27.364c-0.238,0.274-0.465,0.559-0.669,0.85c-2.74,3.904-3.811,9.372-5.079,13.911
		c-2.642,9.471-2.497,20.252,0.256,29.613c0.71,2.415,1.716,4.8,3.316,6.767c1.635,2.013,4.009,2.892,5.719,4.66
		c3.706,3.84,6.912,5.945,12.119,7.755c4.98,1.733,9.158,2.101,14.33,2.229c4.655,0.116,9.25,0.902,13.113-2.502
		c5.26-4.637,1.775-10.42,1.851-16.18c0.058-4.393,1.559-8.389,1.949-12.619c-2.443-0.127-4.928-0.046-7.319-0.389
		c-2.042-0.291-4.09-0.996-6.167-0.983c-3.485,0.017-6.214,3.194-7.109-1.507c-0.785-4.136-1.891-9.116,3.555-9.157
		c2.926-0.023,5.597,0.96,8.541,0.681c2.588-0.244,5.195-0.948,7.808-1.088c2.496-0.134,4.729,0.198,7.185,0.692
		c1.128,0.227,2.193,0.925,2.997,0.064c0.482-0.518,0.378-3.619,0.424-4.428c0.18-3.397,1.215-6.807,1.315-10.181
		c0.122-4.066-2.042-7.953-2.514-11.956c-0.542-4.608-3.048-5.882-7.517-6.196c-2.728-0.198-4.822-1.065-7.534-1.536
		c-3.688-0.635-7.464-0.652-11.194-0.477c-5.44,0.256-10.35,0.36-15.645,1.827c-3.136,0.867-5.894,2.688-8.15,5.003
		C-421.93-30.744-424.193-29.208-425.787-27.364z"/>
	<path fill="#231F20" d="M-343.592-4.406c-0.884-2.402,2.856-8.046,3.974-10.565c1.053-2.375,1.833-4.841,2.711-7.285
		c0.762-2.129,1.943-4.079,2.711-6.103c0.354-0.948-0.215-1.396,0.546-2.094c1.164-1.065,4.3-0.57,5.789-0.489
		c0,1.693,1.647,3.049,2.648,4.178c1.216,1.361,1.575,2.501,2.285,4.241c1.322,3.264,3.718,5.725,4.969,8.925
		c0.728,1.868,0.85,3.817,1.733,5.655c0.569,1.199,1.524,2.101,1.385,3.497c-2.648,0.133-5.242-0.244-7.901-0.21
		c-2.682,0.035-5.096,0.809-7.697,0.996c-4.84,0.349-8.413,0.704-12.91-0.501"/>
	<path fill="#231F20" d="M-355.757,37.047c1.356-1.629,2.845-5.312,3.474-7.436c0.698-2.355,0.186-5.085,1.047-7.399
		c0.785-2.13,2.408-3.695,2.926-6.017c0.506-2.275,1.053-5.073,1.036-7.4c2.135-0.855,5.079-0.187,7.406-0.296
		c2.642-0.127,4.881-0.745,7.441-1.419c3.258-0.861,7.506-1.345,10.927-0.82c1.047,0.163,5.154,0.495,5.905,1.041
		c1.151,0.832,2.128,4.689,2.594,5.969c0.903,2.467,1.752,4.962,2.606,7.453c0.983,2.862,1.594,5.777,2.735,8.576
		c0.703,1.739,2.316,3.578,2.793,5.265c0.109,0.384,0.553,0.896,0.727,1.263c-3.275,1.356-7.61,0.727-11.217,0.727
		c-4.992,0-9.599,1.257-14.522,1.24c-4.979-0.018-9.942,1.413-14.894,0.448c-3.561-0.699-7.086-1.717-10.734-1.688"/>
	<path fill="#231F20" d="M-371.89-4.906c1.722,0.937,4.492,0.855,5.771,2.175c1.46,1.507,1.1,4.125,1.414,6.016
		c0.333,2.042,1.083,3.607,0.506,5.695c-0.518,1.868-1.39,3.497-1.786,5.475c-0.844,4.178-0.401,7.168,0.582,11.065
		c0.844,3.321-0.326,7.215,1.897,10.13c-1.507-1.984,1.401-5.918,2.047-7.907c0.96-2.961,2.508-5.899,3.142-8.966
		c0.541-2.612-0.1-5.213,0.512-7.807c1.105-4.695,3.048-9.187,4.294-13.847c0.529-1.983,1.826-3.601,2.24-5.603
		c0.623-2.985,0.267-6.23,0.814-9.285c0.57-3.177,1.419-6.301,2.362-9.385c0.366-1.182,5.807-12.305,6.196-12.223
		c-2.321-0.652-5.411-1.077-7.843-1.03c-5.498,0.099-11.159,1.385-16.604,2.159c-6.359,0.907-12.875,1.093-19.199-0.175"/>
</g>
</svg>
