<?xml version="1.0" encoding="utf-8"?>
<!-- Generator: Adobe Illustrator 15.0.0, SVG Export Plug-In . SVG Version: 6.00 Build 0)  -->
<!DOCTYPE svg PUBLIC "-//W3C//DTD SVG 1.1//EN" "http://www.w3.org/Graphics/SVG/1.1/DTD/svg11.dtd">
<svg version="1.1" id="Layer_1" xmlns="http://www.w3.org/2000/svg" xmlns:xlink="http://www.w3.org/1999/xlink" x="0px" y="0px"
	 width="1024px" height="1024px" viewBox="0 0 1024 1024" enable-background="new 0 0 1024 1024" xml:space="preserve">
<g id="Layer_1_1_">
	<g>
		<polygon fill="#FFFFFF" points="651.82,561.118 582.945,744.495 957.84,744.495 887.001,561.118 		"/>
		<polygon fill="#FFFFFF" points="756.332,267.059 669.534,502.297 870.268,502.297 778.911,267.059 		"/>
		<path fill="#FFFFFF" d="M494.382,744.495l193.69-477.437H479.096c-48.21,0-133.511,0.356-202.71,0
			c-99.144-0.532-180.653,54.549-202.073,211.773C58.158,597.439,128.974,745.085,284.44,745.085c56.095,0,125.952,0,125.952,0
			v-182.74l-134.458,1.309v-60.538h218.449L494.382,744.495L494.382,744.495z"/>
	</g>
</g>
<g id="Layer_2" display="none">
	<g display="inline">
		<g>
			<path d="M95.18,16.676c0.101,0.418,0.125,0.815,0.131,1.244c0.648-0.108,1.297-0.216,1.946-0.324
				c-0.336-1.026-0.625-1.58-1.792-1.686c-0.971-0.088-2.019,0.032-2.879,0.513c-1.173,0.655-0.133,1.61,0.871,1.196
				c0.482-0.198,0.985-0.212,1.458-0.458c0.853-0.444,0.568-1.346-0.357-1.334c-0.964,0.013-1.89,0.527-2.661,1.068
				c-0.877,0.616-0.792,1.747-0.71,2.675c0.082,0.921,0.433,2.232,1.368,2.649c0.991,0.441,2.032,0.527,3.027,0.088
				c-0.472-0.177-0.944-0.355-1.416-0.533c-0.007,0.083-0.014,0.167-0.021,0.25c0.648-0.108,1.297-0.216,1.946-0.324
				c-0.202-0.503-0.079-1.028-0.069-1.557c0.019-0.923-1.391-0.775-1.794-0.241c-0.304,0.402-0.327,0.698-0.277,1.19
				c0.506-0.311,1.012-0.621,1.518-0.931c-0.343-0.109-1.583-0.501-1.395-1.036c-0.636-0.02-1.272-0.04-1.908-0.06
				c-0.038,0.411-0.07,0.803,0.077,1.193c0.285,0.757,1.346,0.503,1.78,0.047c0.288-0.303,0.396-0.607,0.463-1.015
				c0.011-0.153,0.007-0.307-0.011-0.459c-0.043-0.547,0.075-0.366-0.428-0.417c-0.162-0.345-0.324-0.689-0.486-1.034
				c-0.16,0.17-1.089,0.7-0.631,1.282c0.382,0.484,1.011,0.424,1.547,0.258c-0.356-0.086-0.712-0.172-1.068-0.258
				c0.014,0.021,0.028,0.042,0.042,0.063c0.227,0.337,0.721,0.335,1.068,0.258c0.186-0.054,0.376-0.074,0.569-0.061
				c-0.301-0.223-0.602-0.447-0.902-0.67c-0.007,0.028-0.014,0.056-0.021,0.083c-0.089,0.362,0.354,0.64,0.653,0.663
				c0.544,0.042,1.08,0.022,1.625,0.008c1.121-0.028,1.468-1.505,0.156-1.472c-0.376,0.009-0.75,0.037-1.125,0.008
				c0.218,0.221,0.436,0.441,0.653,0.663c0.007-0.028,0.014-0.056,0.021-0.083c0.123-0.501-0.56-0.675-0.902-0.67
				c-0.375,0.005-0.731,0.067-1.097,0.148c0.356,0.086,0.712,0.172,1.068,0.258c-0.014-0.021-0.028-0.042-0.042-0.063
				c-0.215-0.32-0.733-0.362-1.068-0.258c-0.211,0.052-0.182,0.064,0.09,0.036c0.185,0.098,0.37,0.196,0.555,0.294
				c-0.019-0.024-0.038-0.047-0.057-0.071c0.015,0.187,0.03,0.373,0.046,0.559c-0.098,0.26,0.363-0.271,0.449-0.362
				c0.405-0.431,0.021-0.982-0.486-1.034c-0.659-0.067-1.44,0.183-1.892,0.693c-0.227,0.255-0.32,0.431-0.369,0.767
				c-0.059,0.406,0.295,0.914-0.047,1.274c0.593,0.016,1.187,0.032,1.78,0.047c-0.109-0.291-0.075-0.507-0.048-0.807
				c0.091-0.982-1.654-0.777-1.908-0.06c-0.506,1.431,0.972,2.257,2.146,2.631c0.64,0.204,1.597-0.147,1.518-0.931
				c-0.009-0.021-0.018-0.04-0.027-0.06c-0.598-0.08-1.196-0.16-1.794-0.241c-0.013,0.658-0.153,1.315,0.098,1.943
				c0.323,0.807,1.875,0.531,1.946-0.324c0.007-0.083,0.014-0.167,0.021-0.25c0.063-0.755-0.958-0.735-1.416-0.533
				c-1.355,0.597-2.792-3.779-0.31-3.812c-0.119-0.445-0.238-0.89-0.357-1.334c-0.441,0.229-0.991,0.266-1.458,0.458
				c0.291,0.399,0.581,0.797,0.871,1.196c0.351-0.196,0.705-0.242,1.102-0.265c0.553-0.032,0.63,0.34,0.767,0.759
				c0.267,0.815,1.958,0.52,1.946-0.324c-0.008-0.589-0.019-1.05-0.16-1.631C96.886,15.226,94.953,15.738,95.18,16.676L95.18,16.676
				z"/>
		</g>
	</g>
	<g display="inline">
		<g>
			<path d="M101.309,19.744c0.464-0.665,0.727-1.341,0.799-2.149c0.066-0.734-1.761-0.27-1.924,0.271
				c-0.13,0.431,0.061,0.814,0.225,1.207c0.159,0.38,0.219,0.767,0.502,1.084c0.409,0.46,2.249-0.226,1.802-0.728
				c-0.213-0.24-0.26-0.581-0.373-0.875c-0.115-0.303-0.333-0.628-0.233-0.959c-0.641,0.09-1.283,0.18-1.924,0.271
				c-0.063,0.708-0.251,1.307-0.66,1.892c-0.257,0.368,0.217,0.498,0.504,0.496C100.439,20.25,101.056,20.106,101.309,19.744
				L101.309,19.744z"/>
		</g>
	</g>
	<g display="inline">
		<g>
			<path d="M100.234,23.224c0.32-0.351,0.518-0.703,0.686-1.147c0.066-0.174,0.121-0.353,0.172-0.531
				c0.033-0.12,0.072-0.238,0.115-0.354c-0.554,0.112-0.643,0.205-0.267,0.278c0.175,0.058,0.354,0.099,0.54,0.104
				c0.196,0.003,0.161,0.001-0.105-0.004c0.058,0.108,0.104,0.221,0.137,0.34c0.157,0.462,0.274,0.947,0.419,1.415
				c0.447-0.271,0.894-0.541,1.34-0.811c-0.163,0-1.248,0.069-1.31-0.048c-0.12-0.224-0.089-0.875-0.036-1.104
				c0.167-0.729-1.78-0.423-1.933,0.24c-0.073,0.319-0.141,1.351,0.154,1.592c0.615,0.501,1.626,0.421,2.375,0.423
				c0.334,0,1.517-0.24,1.34-0.811c-0.183-0.593-0.293-1.332-0.615-1.864c-0.292-0.485-1.049-0.562-1.573-0.634
				C101.006,20.215,99.9,20.38,99.495,21c-0.374,0.572-0.347,1.391-0.813,1.902C97.915,23.744,99.799,23.702,100.234,23.224
				L100.234,23.224z"/>
		</g>
	</g>
</g>
</svg>
