<?xml version="1.0" encoding="utf-8"?>
<!-- Generator: Adobe Illustrator 15.0.0, SVG Export Plug-In . SVG Version: 6.00 Build 0)  -->
<!DOCTYPE svg PUBLIC "-//W3C//DTD SVG 1.1//EN" "http://www.w3.org/Graphics/SVG/1.1/DTD/svg11.dtd">
<svg version="1.1" id="Layer_1" xmlns="http://www.w3.org/2000/svg" xmlns:xlink="http://www.w3.org/1999/xlink" x="0px" y="0px"
	 width="500px" height="250px" viewBox="0 0 500 250" enable-background="new 0 0 500 250" xml:space="preserve">
<path fill-rule="evenodd" clip-rule="evenodd" d="M228.71,162.786"/>
<path fill-rule="evenodd" clip-rule="evenodd" d="M225.957,160.734"/>
<path fill-rule="evenodd" clip-rule="evenodd" fill="#231F20" d="M236.333,195.496c7.432-9.257,18.615-22.712,27.246-30.777
	c0.791-0.809,0.778-2.418,0.688-4.104c3.244-1.107,5.553-3.145,8.258-4.788c6.475,2.914,15.289,3.5,19.27,8.892
	c-1.918,6.006-6.824,11.081-11.012,16.415c-3.795,4.837-7.674,11.702-13.074,14.362l8.945-0.684
	c6.516-11.762,15.125-21.445,22.711-32.146c-4.599-5.688-10.923-9.664-15.141-15.731c11.059-16.14,25.481-28.935,28.215-53.348
	c0.822-3.743,5.217-3.936,4.818-8.891c-2.092-1.114-4.404-2.008-7.57-2.053c-1.479-8.156,6.951-10.678,11.699-14.362
	c3.702-2.874,6.043-7.509,9.635-10.259C339.746,51.342,353.125,45.875,362,36c-8.186-1.896-29.838-8.352-34.75-13.5
	c-9.434,8.311-10.304,20.68-18.94,29.367c-9.119,9.174-17.496,14.576-32.344,19.15c-19.522,6.015-39.602,11.526-55.742,22.57
	c-8.525,5.834-12.77,10.696-26.151,9.575c-20.678-1.731-42.98-4.145-48.173,17.1c-4.837,1.574-9.8,3.026-13.764,5.471
	c15.103,7.51,28.421,15.321,40.603,26.674c17.019,15.862,54.183,29.595,81.894,13.68c-1.877,4.749-6.634,9.674-11.699,14.362
	c-3.891,3.604-10.726,13.534-15.766,15.047"/>
<path fill-rule="evenodd" clip-rule="evenodd" fill="#231F20" d="M500,198c0,0-26-58-165-15s-173-0.436-173-0.436S229,216.5,331,166
	c86.371-42.762,169-17.794,169-17.794V198z"/>
</svg>
